<svg xmlns="http://www.w3.org/2000/svg" width="588" height="152" viewBox="0 0 588 152" fill="none"><path d="M190.08 44.14H202.53L221.64 85.11L240.46 44.14H253.2L261.18 109.63H245.88L241.6 72.37L227.34 102.12H215.93L201.67 72.46L197.3 109.63H182L190.08 44.14Z" fill="black"></path><path d="M287.88 80.07L262.41 44.14H280.19L295.3 68.28L310.7 44.14H328.48L302.91 80.36V109.64H287.89V80.08L287.88 80.07Z" fill="black"></path><path d="M453.46 76.84C453.46 58.3 468.19 43 486.92 43C505.65 43 520.29 58.3 520.29 76.84C520.29 95.38 505.37 110.78 486.92 110.78C468.47 110.78 453.46 95.38 453.46 76.84ZM486.83 96.71C497.76 96.71 505.27 87.77 505.27 76.84C505.27 65.91 497.76 57.07 486.83 57.07C475.9 57.07 468.48 65.91 468.48 76.84C468.48 87.77 475.8 96.71 486.83 96.71Z" fill="black"></path><path d="M531.49 44.14H558.3C573.51 44.14 580.35 54.98 580.35 65.81C580.35 75.03 573.51 83.87 565.05 85.77L581.88 109.63H564.48L549.46 86.63H546.42V109.63H531.49V44.14ZM555.92 74.84C562.48 74.84 565.33 70.56 565.33 66.19C565.33 61.82 562.38 57.16 556.3 57.16H546.42V74.84H555.93H555.92Z" fill="black"></path><path d="M410.44 85.78C401.98 83.88 395.14 75.04 395.14 65.82C395.14 54.98 401.98 44.15 417.19 44.15H444V57.17H429.07H426.83H419.19C413.11 57.17 410.16 61.83 410.16 66.2C410.16 70.57 413.01 74.85 419.57 74.85H428.35H429.07H444V109.64H429.07V86.64H426.03L411.01 109.64H393.61L410.44 85.78Z" fill="black"></path><path d="M368.91 85.78C377.37 83.88 384.21 75.04 384.21 65.82C384.21 54.98 377.37 44.15 362.16 44.15H335.35V57.17H360.16C366.24 57.17 369.19 61.83 369.19 66.2C369.19 70.57 366.34 74.85 359.78 74.85H335.35V109.64H350.28V86.64H353.32L368.34 109.64H385.74L368.91 85.78Z" fill="black"></path><circle cx="78.5" cy="76.5" r="71.5" fill="#69C9CA"></circle><path d="M102.689 84.9307C110.659 83.1278 117.104 74.7399 117.104 65.9913C117.104 55.7056 110.659 45.4293 96.3287 45.4293H59.9131C45.5825 45.4293 39.1285 55.7151 39.1285 65.9913C39.1285 74.7399 45.573 83.1278 53.5439 84.9307L37.6963 107.571H54.0904L68.2421 85.7467H71.0781V107.571H85.1732V85.7467H88.0092L102.161 107.571H118.555L102.698 84.9307H102.689ZM94.0958 74.5596H62.1461C55.9654 74.5596 53.2801 70.4984 53.2801 66.3519C53.2801 62.2053 56.0596 57.7836 61.7881 57.7836H94.4444C100.173 57.7836 102.952 62.2053 102.952 66.3519C102.952 70.4984 100.267 74.5596 94.0863 74.5596H94.0958Z" fill="white"></path></svg>